# xmcd CD database file
#
# Track frame offsets:
#	150
#	11680
#	26315
#	39627
#	57135
#	70247
#	83447
#	94400
#	105735
#	117197
#	128900
#	144352
#	160252
#	173617
#	183195
#	195950
#	209130
#	223142
#	235252
#	251667
#
# Disc length: 3511 seconds
#
# Revision: 0
# Processed by: cddbd v1.4PL0 Copyright (c) Steve Scherf et al.
# Submitted via: Feurio! 1.66.6ß - http://www.feurio.com
#
DISCID=110db514
DTITLE=Crystal Gayle - 20 Love Songs
DYEAR=1982
DGENRE=Country
TTITLE0=Hello I Love You
TTITLE1=Cry Me A River
TTITLE2=Dreaming My Dreams With You
TTITLE3=Someday Soon
TTITLE4=I'll Do It All Over Again
TTITLE5=I Wanna Come Back To You
TTITLE6=Somebody Loves You
TTITLE7=It's All Right With Me
TTITLE8=Coming Closer
TTITLE9=Don't It Make My Brown Eyes Blue
TTITLE10=When I Dream
TTITLE11=I'll Get Over You
TTITLE12=Heart Mender
TTITLE13=Funny
TTITLE14=I Still Miss Someone
TTITLE15=Talking In Your Sleep
TTITLE16=Right In The Palm Of Your Hand
TTITLE17=Beyond You
TTITLE18=Going Down Slow
TTITLE19=A Woman's Heart (Is A Handy Place To Be)
EXTD=Produced by Allen Reynolds \r\nOriginal soundrecordingins made by Liberty 
EXTD=Records, A division of Capitol Records Inc.\r\nCompiled by Iain McLay and 
EXTD=Lynn Schults\r\n(c)1982  Music For Pleasure Ltd, 1/3 Uxbridge Road, 
EXTD=Hayes, Middlesex, UB4 0SY\r\nupc 5099941562918
EXTT0=
EXTT1=
EXTT2=
EXTT3=
EXTT4=
EXTT5=
EXTT6=
EXTT7=
EXTT8=
EXTT9=
EXTT10=
EXTT11=
EXTT12=
EXTT13=
EXTT14=
EXTT15=
EXTT16=
EXTT17=
EXTT18=
EXTT19=
PLAYORDER=
